<svg width="17" height="17" viewBox="0 0 17 17" fill="none" xmlns="http://www.w3.org/2000/svg">
<path d="M7.84766 1.625C7.02734 1.625 6.25911 1.78125 5.54297 2.09375C4.8138 2.40625 4.18229 2.82943 3.64844 3.36328C3.11458 3.89714 2.69141 4.52865 2.37891 5.25781C2.06641 5.97396 1.91016 6.74219 1.91016 7.5625C1.91016 8.38281 2.06641 9.15104 2.37891 9.86719C2.69141 10.5964 3.11458 11.2279 3.64844 11.7617C4.18229 12.2956 4.8138 12.7188 5.54297 13.0312C6.25911 13.3438 7.02734 13.5 7.84766 13.5C8.66797 13.5 9.4362 13.3438 10.1523 13.0312C10.8815 12.7188 11.513 12.2956 12.0469 11.7617C12.5807 11.2279 13.0039 10.5964 13.3164 9.86719C13.6289 9.15104 13.7852 8.38281 13.7852 7.5625C13.7852 6.74219 13.6289 5.97396 13.3164 5.25781C13.0039 4.52865 12.5807 3.89714 12.0469 3.36328C11.513 2.82943 10.8815 2.40625 10.1523 2.09375C9.4362 1.78125 8.66797 1.625 7.84766 1.625ZM0.660156 7.5625C0.660156 6.57292 0.848958 5.64193 1.22656 4.76953C1.60417 3.89714 2.11849 3.13542 2.76953 2.48438C3.42057 1.83333 4.18229 1.31901 5.05469 0.941406C5.92708 0.563803 6.85807 0.375 7.84766 0.375C8.83724 0.375 9.76823 0.563803 10.6406 0.941406C11.513 1.31901 12.2747 1.83333 12.9258 2.48438C13.5768 3.13542 14.0911 3.89714 14.4688 4.76953C14.8464 5.64193 15.0352 6.57292 15.0352 7.5625C15.0352 8.55208 14.8464 9.48307 14.4688 10.3555C14.0911 11.2279 13.5768 11.9896 12.9258 12.6406C12.2747 13.2917 11.513 13.806 10.6406 14.1836C9.76823 14.5612 8.83724 14.75 7.84766 14.75C6.85807 14.75 5.92708 14.5612 5.05469 14.1836C4.18229 13.806 3.42057 13.2917 2.76953 12.6406C2.11849 11.9896 1.60417 11.2279 1.22656 10.3555C0.848958 9.48307 0.660156 8.55208 0.660156 7.5625ZM12.0469 11.7617C12.1641 11.6445 12.3105 11.5859 12.4863 11.5859C12.6621 11.5859 12.8086 11.6445 12.9258 11.7617L16.7344 15.5508C16.8516 15.681 16.9102 15.8307 16.9102 16C16.9102 16.1693 16.8516 16.319 16.7344 16.4492C16.6042 16.5664 16.4544 16.625 16.2852 16.625C16.1159 16.625 15.9661 16.5664 15.8359 16.4492L12.0469 12.6406C11.9297 12.5234 11.8711 12.377 11.8711 12.2012C11.8711 12.0254 11.9297 11.8789 12.0469 11.7617Z" fill="black"/>
</svg>
