<svg width="21" height="21" viewBox="0 0 21 21" fill="none" xmlns="http://www.w3.org/2000/svg">
<g clip-path="url(#clip0_8360_23343)">
<path d="M3.0332 5.5H15.6504C15.8066 5.5 15.9564 5.52604 16.0996 5.57812C16.2428 5.63021 16.373 5.70833 16.4902 5.8125C16.6074 5.91667 16.7018 6.03711 16.7734 6.17383C16.8451 6.31055 16.8874 6.45052 16.9004 6.59375C16.9004 6.60677 16.9004 6.61328 16.9004 6.61328L18.0137 16.6133C18.0267 16.7044 18.0267 16.7923 18.0137 16.877C18.0007 16.9616 17.9811 17.043 17.9551 17.1211C17.929 17.2122 17.8965 17.2936 17.8574 17.3652C17.8184 17.4368 17.7663 17.5052 17.7012 17.5703C17.6491 17.6484 17.5872 17.7135 17.5156 17.7656C17.444 17.8177 17.3691 17.8568 17.291 17.8828C17.1999 17.9219 17.112 17.9512 17.0273 17.9707C16.9427 17.9902 16.8613 18 16.7832 18H1.90039C1.82227 18 1.74089 17.9902 1.65625 17.9707C1.57161 17.9512 1.48372 17.9219 1.39258 17.8828C1.31445 17.8568 1.23958 17.8177 1.16797 17.7656C1.09635 17.7135 1.03451 17.6484 0.982422 17.5703C0.917318 17.5052 0.865234 17.4368 0.826172 17.3652C0.787109 17.2936 0.754557 17.2122 0.728516 17.1211C0.702474 17.043 0.682943 16.9616 0.669922 16.877C0.656901 16.7923 0.656901 16.7044 0.669922 16.6133L1.7832 6.61328C1.7832 6.61328 1.7832 6.60677 1.7832 6.59375C1.79622 6.45052 1.83854 6.31055 1.91016 6.17383C1.98177 6.03711 2.07617 5.91667 2.19336 5.8125C2.31055 5.70833 2.44076 5.63021 2.58398 5.57812C2.72721 5.52604 2.87695 5.5 3.0332 5.5ZM15.6504 6.75H3.0332L1.91992 16.75H16.7637L15.6504 6.75ZM9.3418 3.625C9.01628 3.625 8.69727 3.68685 8.38477 3.81055C8.07227 3.93425 7.79883 4.11328 7.56445 4.34766C7.33008 4.58203 7.15104 4.85547 7.02734 5.16797C6.90365 5.48047 6.8418 5.79948 6.8418 6.125V8.625C6.8418 8.79427 6.77995 8.94075 6.65625 9.06445C6.53255 9.18815 6.38607 9.25 6.2168 9.25C6.04753 9.25 5.90104 9.18815 5.77734 9.06445C5.65365 8.94075 5.5918 8.79427 5.5918 8.625V6.125C5.5918 5.63021 5.6862 5.15169 5.875 4.68945C6.0638 4.22721 6.33398 3.82031 6.68555 3.46875C7.03711 3.11719 7.44401 2.847 7.90625 2.6582C8.36849 2.4694 8.847 2.375 9.3418 2.375C9.83659 2.375 10.3151 2.4694 10.7773 2.6582C11.2396 2.847 11.6465 3.11719 11.998 3.46875C12.3496 3.82031 12.6198 4.22721 12.8086 4.68945C12.9974 5.15169 13.0918 5.63021 13.0918 6.125V8.625C13.0918 8.79427 13.0299 8.94075 12.9062 9.06445C12.7826 9.18815 12.6361 9.25 12.4668 9.25C12.2975 9.25 12.151 9.18815 12.0273 9.06445C11.9036 8.94075 11.8418 8.79427 11.8418 8.625V6.125C11.8418 5.79948 11.7799 5.48047 11.6562 5.16797C11.5326 4.85547 11.3535 4.58203 11.1191 4.34766C10.8848 4.11328 10.6113 3.93425 10.2988 3.81055C9.98633 3.68685 9.66732 3.625 9.3418 3.625Z" fill="black"/>
</g>
<defs>
<clipPath id="clip0_8360_23343">
<rect width="20" height="20" fill="white" transform="matrix(1 0 0 -1 0.660156 20.5)"/>
</clipPath>
</defs>
</svg>
