<svg width="19" height="18" viewBox="0 0 19 18" fill="none" xmlns="http://www.w3.org/2000/svg">
<path d="M8.69914 0.984278C8.8033 0.906153 8.91723 0.847559 9.04093 0.808496C9.16463 0.769434 9.29158 0.749903 9.42179 0.749903C9.552 0.749903 9.67895 0.769434 9.80265 0.808496C9.92635 0.847559 10.0403 0.906153 10.1444 0.984278C10.2616 1.04938 10.3593 1.13402 10.4374 1.23818C10.5155 1.34235 10.5741 1.45303 10.6132 1.57022L12.3319 5.88662C12.3319 5.89964 12.3319 5.90615 12.3319 5.90615C12.3319 5.90615 12.3319 5.90941 12.3319 5.91592C12.3319 5.92243 12.3385 5.92568 12.3515 5.92568L16.9609 6.21865C17.5598 6.25772 17.9439 6.56045 18.1132 7.12686C18.2825 7.69326 18.1458 8.15876 17.703 8.52334L14.1679 11.4726C14.1679 11.4726 14.1646 11.4758 14.1581 11.4823C14.1516 11.4888 14.1484 11.4921 14.1484 11.4921C14.1484 11.4921 14.1484 11.4953 14.1484 11.5019C14.1484 11.5084 14.1484 11.5116 14.1484 11.5116L15.3007 16.0038C15.4309 16.5507 15.2681 17.0064 14.8124 17.371C14.3567 17.7356 13.8749 17.7551 13.3671 17.4296L9.42179 14.9296L5.74992 17.2538C5.19002 17.6054 4.65942 17.5793 4.15812 17.1757C3.65682 16.772 3.48429 16.2707 3.64054 15.6718L4.69523 11.5116C4.69523 11.5116 4.69523 11.5084 4.69523 11.5019C4.69523 11.4953 4.69523 11.4921 4.69523 11.4921C4.69523 11.4921 4.69197 11.4888 4.68546 11.4823C4.67895 11.4758 4.6757 11.4726 4.6757 11.4726L1.14054 8.52334C0.697834 8.15876 0.561115 7.69326 0.730386 7.12686C0.899656 6.56045 1.28377 6.25772 1.88273 6.21865L6.4921 5.92568C6.50513 5.92568 6.51164 5.92243 6.51164 5.91592C6.51164 5.90941 6.51164 5.90615 6.51164 5.90615C6.51164 5.90615 6.51164 5.89964 6.51164 5.88662L8.23039 1.57022C8.26945 1.45303 8.32804 1.34235 8.40617 1.23818C8.48429 1.13402 8.58195 1.04938 8.69914 0.984278ZM10.1054 13.8749L14.0312 16.3749C14.0442 16.3749 14.0507 16.3749 14.0507 16.3749C14.0507 16.3749 14.0572 16.3749 14.0702 16.3749C14.0702 16.3619 14.0735 16.3554 14.08 16.3554C14.0865 16.3554 14.0898 16.3489 14.0898 16.3358C14.0898 16.3358 14.0898 16.3326 14.0898 16.3261C14.0898 16.3196 14.0898 16.3163 14.0898 16.3163L12.9374 11.8241C12.9114 11.7069 12.9016 11.5865 12.9081 11.4628C12.9146 11.3391 12.9374 11.2187 12.9765 11.1015C13.0025 10.9843 13.0513 10.8736 13.123 10.7694C13.1946 10.6653 13.276 10.5741 13.3671 10.496L16.9023 7.56631C16.9023 7.55329 16.9055 7.54678 16.912 7.54678C16.9185 7.54678 16.9218 7.54678 16.9218 7.54678C16.9218 7.54678 16.9218 7.54027 16.9218 7.52725C16.9218 7.52725 16.9218 7.52399 16.9218 7.51748C16.9218 7.51097 16.9218 7.5012 16.9218 7.48818C16.9218 7.48818 16.9185 7.48493 16.912 7.47842C16.9055 7.47191 16.9023 7.46865 16.9023 7.46865C16.9023 7.46865 16.8958 7.46865 16.8827 7.46865L12.2929 7.17568C12.2929 7.17568 12.2896 7.17568 12.2831 7.17568C12.2766 7.17568 12.2734 7.17568 12.2734 7.17568C12.1562 7.16266 12.039 7.13662 11.9218 7.09756C11.8046 7.0585 11.7004 6.9999 11.6093 6.92178C11.5051 6.84365 11.4172 6.75902 11.3456 6.66787C11.274 6.57673 11.2122 6.47256 11.1601 6.35537L9.44132 2.01943C9.44132 2.00641 9.44132 1.9999 9.44132 1.9999C9.44132 1.9999 9.43807 1.9999 9.43156 1.9999C9.42505 1.9999 9.42179 1.9999 9.42179 1.9999C9.42179 1.9999 9.41854 1.9999 9.41203 1.9999C9.40552 1.9999 9.40226 1.9999 9.40226 1.9999C9.40226 1.9999 9.40226 2.00641 9.40226 2.01943L7.68351 6.35537C7.63143 6.47256 7.56958 6.57673 7.49796 6.66787C7.42635 6.75902 7.33846 6.84365 7.23429 6.92178C7.14315 6.9999 7.03898 7.0585 6.92179 7.09756C6.8046 7.13662 6.68742 7.16266 6.57023 7.17568L1.96085 7.46865C1.94783 7.46865 1.94132 7.46865 1.94132 7.46865C1.94132 7.46865 1.93807 7.47191 1.93156 7.47842C1.92505 7.48493 1.92179 7.48818 1.92179 7.48818C1.92179 7.5012 1.92179 7.51097 1.92179 7.51748C1.92179 7.52399 1.92179 7.52725 1.92179 7.52725C1.92179 7.54027 1.92179 7.54678 1.92179 7.54678C1.92179 7.54678 1.92505 7.54678 1.93156 7.54678C1.93807 7.54678 1.94132 7.55329 1.94132 7.56631L5.47648 10.496C5.56763 10.5741 5.64901 10.6653 5.72062 10.7694C5.79223 10.8736 5.84106 10.9843 5.8671 11.1015C5.90617 11.2187 5.92895 11.3391 5.93546 11.4628C5.94197 11.5865 5.93221 11.7069 5.90617 11.8241L4.85148 15.9843C4.83846 16.0233 4.83846 16.0624 4.85148 16.1015C4.8645 16.1405 4.88403 16.1666 4.91007 16.1796C4.92309 16.1926 4.93611 16.2024 4.94914 16.2089C4.96216 16.2154 4.97518 16.2187 4.9882 16.2187C5.00122 16.2187 5.01424 16.2187 5.02726 16.2187C5.04028 16.2187 5.05981 16.2121 5.08585 16.1991L8.7382 13.8749C8.84236 13.8098 8.95304 13.761 9.07023 13.7284C9.18742 13.6959 9.3046 13.6796 9.42179 13.6796C9.53898 13.6796 9.65617 13.6959 9.77335 13.7284C9.89054 13.761 10.0012 13.8098 10.1054 13.8749Z" fill="black"/>
</svg>
