<svg width="18" height="14" viewBox="0 0 18 14" fill="none" xmlns="http://www.w3.org/2000/svg">
<path d="M17.5308 12.3098C17.521 12.3098 17.3892 12.1536 17.1353 11.8411C16.8814 11.5286 16.6421 11.1477 16.4175 10.6985C16.8179 10.3079 17.1328 9.86841 17.3623 9.38013C17.5918 8.89185 17.7066 8.37427 17.7066 7.82739C17.7066 7.24146 17.5747 6.68481 17.3111 6.15747C17.0474 5.63989 16.6836 5.17603 16.2198 4.76587C15.7559 4.35571 15.2115 4.01392 14.5865 3.74048C13.9517 3.46704 13.273 3.28638 12.5503 3.19849C12.3159 2.77856 12.0083 2.39282 11.6275 2.04126C11.2564 1.6897 10.8267 1.38696 10.3384 1.13306C9.85013 0.87915 9.3179 0.678955 8.74173 0.532471C8.16556 0.395752 7.56009 0.327393 6.92532 0.327393C6.08548 0.327393 5.29446 0.449463 4.55227 0.693604C3.81009 0.937744 3.16311 1.27222 2.61136 1.69702C2.0596 2.12183 1.62747 2.61743 1.31497 3.18384C0.992705 3.76001 0.831572 4.37036 0.831572 5.01489C0.831572 5.56177 0.946318 6.07935 1.17581 6.56763C1.4053 7.05591 1.72024 7.49536 2.12063 7.88599C1.89602 8.33521 1.65677 8.71606 1.40286 9.02856C1.14895 9.34106 1.022 9.49731 1.022 9.49731C0.924345 9.59497 0.86331 9.70972 0.838896 9.84155C0.814482 9.97339 0.831572 10.1028 0.890165 10.2297C0.938994 10.3567 1.01956 10.4568 1.13186 10.53C1.24417 10.6033 1.36868 10.6399 1.5054 10.6399C2.28665 10.6399 2.98977 10.5203 3.61477 10.281C4.23977 10.0417 4.76224 9.7854 5.18216 9.51196C5.30911 9.54126 5.44095 9.56812 5.57767 9.59253C5.71438 9.61694 5.85599 9.63403 6.00247 9.6438C6.22708 10.0637 6.52981 10.4495 6.91067 10.801C7.28177 11.1526 7.71145 11.4553 8.19974 11.7092C8.68802 11.9631 9.22024 12.1633 9.79642 12.3098C10.3726 12.4465 10.9781 12.5149 11.6128 12.5149C11.9156 12.5149 12.2134 12.4978 12.5064 12.4636C12.7993 12.4294 13.0874 12.3831 13.3706 12.3245C13.7906 12.5881 14.3106 12.842 14.9307 13.0862C15.5508 13.3303 16.2515 13.4524 17.0327 13.4524C17.1695 13.4524 17.294 13.4158 17.4063 13.3425C17.5186 13.2693 17.604 13.1692 17.6626 13.0422C17.7115 12.9153 17.7237 12.7859 17.6992 12.6541C17.6748 12.5222 17.6187 12.4075 17.5308 12.3098ZM5.38724 8.58911L4.99173 8.50122L4.66946 8.72095C4.36673 8.90649 3.99808 9.09448 3.56351 9.28491C3.12893 9.47534 2.63821 9.60474 2.09134 9.6731C2.21829 9.50708 2.35989 9.30688 2.51614 9.07251C2.67239 8.83813 2.81888 8.58423 2.9556 8.31079L3.26321 7.69556L2.77981 7.22681C2.54544 7.0022 2.31839 6.7019 2.09866 6.32593C1.87893 5.94995 1.76907 5.51294 1.76907 5.01489C1.76907 4.49731 1.90579 4.00903 2.17923 3.55005C2.4429 3.10083 2.80911 2.70532 3.27786 2.36353C3.74661 2.02173 4.29349 1.75317 4.91849 1.55786C5.54349 1.36255 6.21243 1.26489 6.92532 1.26489C7.63821 1.26489 8.30716 1.36255 8.93216 1.55786C9.55716 1.75317 10.104 2.02173 10.5728 2.36353C11.0415 2.70532 11.4077 3.10083 11.6714 3.55005C11.9449 4.00903 12.0816 4.49731 12.0816 5.01489C12.0816 5.53247 11.9449 6.02075 11.6714 6.47974C11.4077 6.92896 11.0415 7.32446 10.5728 7.66626C10.104 8.00806 9.55716 8.27661 8.93216 8.47192C8.30716 8.66724 7.63821 8.76489 6.92532 8.76489C6.66165 8.76489 6.40286 8.75024 6.14895 8.72095C5.89505 8.69165 5.64114 8.64771 5.38724 8.58911ZM13.8687 11.5334L13.5464 11.3137L13.1509 11.4016C12.897 11.4602 12.6431 11.5042 12.3892 11.5334C12.1353 11.5627 11.8765 11.5774 11.6128 11.5774C11.1343 11.5774 10.6753 11.5334 10.2359 11.4456C9.79642 11.3577 9.38382 11.2307 8.99808 11.0647C8.61233 10.8987 8.26321 10.6985 7.95071 10.4641C7.63821 10.2297 7.36966 9.97583 7.14505 9.70239C7.96536 9.6731 8.73196 9.53149 9.44485 9.27759C10.1577 9.02368 10.7779 8.68677 11.3052 8.26685C11.8325 7.84692 12.2525 7.35864 12.565 6.802C12.8677 6.24536 13.0191 5.64966 13.0191 5.01489C13.0191 4.87817 13.0093 4.74146 12.9898 4.60474C12.9702 4.46802 12.9458 4.33618 12.9165 4.20923C13.4732 4.30688 13.9859 4.4729 14.4546 4.70728C14.9234 4.93188 15.3286 5.20288 15.6704 5.52026C16.0122 5.83765 16.2808 6.19165 16.4761 6.58228C16.6714 6.98267 16.7691 7.39771 16.7691 7.82739C16.7691 8.32544 16.6592 8.76245 16.4395 9.13843C16.2198 9.5144 15.9927 9.8147 15.7583 10.0393L15.2749 10.5081L15.5825 11.1233C15.7193 11.3967 15.8658 11.6506 16.022 11.885C16.1783 12.1194 16.3199 12.3196 16.4468 12.4856C15.8999 12.4172 15.4092 12.2878 14.9746 12.0974C14.5401 11.907 14.1714 11.719 13.8687 11.5334Z" fill="#7E7E7E"/>
</svg>
