<svg width="16" height="16" viewBox="0 0 16 16" fill="none" xmlns="http://www.w3.org/2000/svg">
<path d="M3.52578 15.8901H0.25625V5.37842H3.52578V15.8901ZM1.87344 3.97217C0.853906 3.97217 0.0101562 3.09326 0.0101562 2.03857C0.0101562 1.01904 0.853906 0.175293 1.87344 0.175293C2.92812 0.175293 3.77187 1.01904 3.77187 2.03857C3.77187 3.09326 2.92812 3.97217 1.87344 3.97217ZM15.725 15.8901H12.4906V10.7925C12.4906 9.56201 12.4555 8.01514 10.768 8.01514C9.08047 8.01514 8.83437 9.31592 8.83437 10.687V15.8901H5.56484V5.37842H8.69375V6.81982H8.72891C9.18594 6.01123 10.2406 5.13232 11.8227 5.13232C15.1273 5.13232 15.7602 7.31201 15.7602 10.1245V15.8901H15.725Z" fill="black"/>
</svg>
