<svg width="19" height="18" viewBox="0 0 19 18" fill="none" xmlns="http://www.w3.org/2000/svg">
<path d="M18.2106 9.14014C18.2106 13.9565 14.3083 17.8589 9.49187 17.8589C8.57781 17.8589 7.69891 17.7534 6.89031 17.4722C7.24187 16.9097 7.76922 15.9604 7.98016 15.187C8.08562 14.8003 8.5075 13.1128 8.5075 13.1128C8.78875 13.6753 9.6325 14.1323 10.5114 14.1323C13.1481 14.1323 15.0466 11.7065 15.0466 8.71826C15.0466 5.83545 12.6911 3.65576 9.66766 3.65576C5.90594 3.65576 3.90203 6.18701 3.90203 8.9292C3.90203 10.23 4.57 11.812 5.65984 12.3394C5.83562 12.4097 5.94109 12.3745 5.97625 12.1987C5.97625 12.0933 6.15203 11.4956 6.22234 11.2144C6.22234 11.144 6.22234 11.0386 6.15203 10.9683C5.80047 10.5464 5.51922 9.73779 5.51922 8.96436C5.51922 7.06592 6.96062 5.20264 9.45672 5.20264C11.5661 5.20264 13.0778 6.64404 13.0778 8.75342C13.0778 11.1089 11.8825 12.7261 10.3356 12.7261C9.49187 12.7261 8.85906 12.0229 9.03484 11.1792C9.28094 10.1245 9.77312 8.99951 9.77312 8.26123C9.77312 7.59326 9.42156 7.03076 8.68328 7.03076C7.80437 7.03076 7.10125 7.94482 7.10125 9.14014C7.10125 9.91357 7.34734 10.4409 7.34734 10.4409C7.34734 10.4409 6.50359 14.0972 6.32781 14.7651C6.15203 15.5386 6.22234 16.5933 6.29266 17.2612C3.05828 15.9956 0.773125 12.8667 0.773125 9.14014C0.773125 4.32373 4.67547 0.421387 9.49187 0.421387C14.3083 0.421387 18.2106 4.32373 18.2106 9.14014Z" fill="black"/>
</svg>
