<svg width="19" height="16" viewBox="0 0 19 16" fill="none" xmlns="http://www.w3.org/2000/svg">
<path d="M16.4086 4.48389C16.4086 4.65967 16.4086 4.80029 16.4086 4.97607C16.4086 9.86279 12.7172 15.4526 5.93203 15.4526C3.82266 15.4526 1.88906 14.855 0.271875 13.8003C0.553125 13.8354 0.834375 13.8706 1.15078 13.8706C2.87344 13.8706 4.45547 13.2729 5.72109 12.2886C4.10391 12.2534 2.73281 11.1987 2.27578 9.72217C2.52188 9.75732 2.73281 9.79248 2.97891 9.79248C3.29531 9.79248 3.64688 9.72217 3.92813 9.65186C2.24063 9.30029 0.975 7.82373 0.975 6.03076V5.99561C1.46719 6.27686 2.06484 6.41748 2.6625 6.45264C1.64297 5.78467 1.01016 4.65967 1.01016 3.39404C1.01016 2.69092 1.18594 2.05811 1.50234 1.53076C3.33047 3.74561 6.07266 5.22217 9.13125 5.39795C9.06094 5.1167 9.02578 4.83545 9.02578 4.5542C9.02578 2.51514 10.6781 0.862793 12.7172 0.862793C13.7719 0.862793 14.7211 1.28467 15.4242 2.02295C16.2328 1.84717 17.0414 1.53076 17.7445 1.10889C17.4633 1.98779 16.9008 2.69092 16.1273 3.14795C16.8656 3.07764 17.6039 2.8667 18.2367 2.58545C17.7445 3.32373 17.1117 3.95654 16.4086 4.48389Z" fill="black"/>
</svg>
