<svg width="18" height="24" viewBox="0 0 18 24" fill="none" xmlns="http://www.w3.org/2000/svg">
<path d="M17.0616 10.9246C17.0459 10.862 17.0263 10.8033 17.0029 10.7485C16.9794 10.6938 16.9442 10.6429 16.8972 10.5959C16.8503 10.549 16.8033 10.506 16.7564 10.4668C16.7094 10.4277 16.6547 10.4003 16.5921 10.3847L11.1928 8.36582L12.5543 1.46415C12.57 1.3859 12.5739 1.30765 12.5661 1.2294C12.5583 1.15115 12.5387 1.0729 12.5074 0.994648C12.4761 0.932047 12.4291 0.869448 12.3665 0.806847C12.3039 0.744247 12.2413 0.697296 12.1787 0.665997C12.1005 0.619047 12.0222 0.587746 11.944 0.572096C11.8657 0.556446 11.7875 0.556446 11.7092 0.572096C11.631 0.587746 11.5527 0.615133 11.4745 0.654259C11.3962 0.693384 11.3336 0.744247 11.2867 0.806847L0.769869 12.0749C0.722919 12.1218 0.683794 12.1727 0.652494 12.2275C0.621194 12.2822 0.597719 12.3409 0.582069 12.4035C0.566419 12.4505 0.558594 12.5053 0.558594 12.5679C0.558594 12.6305 0.566419 12.6931 0.582069 12.7557C0.597719 12.8183 0.617281 12.8769 0.640756 12.9317C0.664232 12.9865 0.699444 13.0374 0.746394 13.0843C0.793344 13.1313 0.840294 13.1743 0.887245 13.2134C0.934195 13.2525 0.98897 13.2799 1.05157 13.2956L6.45083 15.3144L5.08928 22.2161C5.07363 22.2944 5.06972 22.3726 5.07754 22.4509C5.08537 22.5291 5.10493 22.6074 5.13623 22.6856C5.16753 22.7482 5.21448 22.8108 5.27708 22.8734C5.33968 22.936 5.40228 22.983 5.46488 23.0143C5.52748 23.0456 5.58617 23.069 5.64094 23.0847C5.69572 23.1003 5.75441 23.1082 5.81701 23.1082C5.86396 23.1082 5.91482 23.1042 5.96959 23.0964C6.02437 23.0886 6.07523 23.069 6.12218 23.0377C6.16913 23.0221 6.21217 22.9986 6.2513 22.9673C6.29042 22.936 6.32563 22.9047 6.35693 22.8734L16.8738 11.6054C16.9207 11.5584 16.9598 11.5076 16.9911 11.4528C17.0224 11.398 17.0459 11.3393 17.0616 11.2767C17.0772 11.2298 17.085 11.175 17.085 11.1124C17.085 11.0498 17.0772 10.9872 17.0616 10.9246Z" fill="#2EBB77"/>
</svg>
